<svg xmlns="http://www.w3.org/2000/svg" width="820" height="250" viewBox="0 0 820 250">
<rect width="100%" height="100%" fill="#ffffff"/>
<text x="64" y="22" font-family="Arial,sans-serif" font-size="16" font-weight="700" fill="#111827">BTCUSDT 15m Existing Strategy — recent snapshots</text>
<line x1="64" y1="208" x2="796" y2="208" stroke="#d1d5db"/>
<line x1="64" y1="34" x2="64" y2="208" stroke="#d1d5db"/>
<polyline fill="none" stroke="#2563eb" stroke-width="3" points="64.0,188.6 89.2,187.3 114.5,187.9 139.7,190.1 165.0,179.3 190.2,184.1 215.4,166.8 240.7,170.8 265.9,178.8 291.2,190.7 316.4,182.9 341.7,187.3 366.9,208.0 392.1,204.8 417.4,186.3 442.6,184.7 467.9,197.1 493.1,186.3 518.3,174.5 543.6,172.9 568.8,70.5 594.1,41.2 619.3,39.7 644.6,57.9 669.8,65.7 695.0,48.7 720.3,39.6 745.5,45.8 770.8,48.2 796.0,34.0"/>
<text x="8" y="42" font-family="Arial,sans-serif" font-size="12" fill="#4b5563">86,632.68</text>
<text x="8" y="208" font-family="Arial,sans-serif" font-size="12" fill="#4b5563">80,379.06</text>
<text x="64" y="236" font-family="Arial,sans-serif" font-size="11" fill="#6b7280">2026-09-18T20:14</text>
<text x="796" y="236" text-anchor="end" font-family="Arial,sans-serif" font-size="11" fill="#6b7280">2026-09-23T01:29</text>
</svg>