<svg xmlns="http://www.w3.org/2000/svg" width="820" height="250" viewBox="0 0 820 250">
<rect width="100%" height="100%" fill="#ffffff"/>
<text x="64" y="22" font-family="Arial,sans-serif" font-size="16" font-weight="700" fill="#111827">OB NIFTY 15m — recent snapshots</text>
<line x1="64" y1="208" x2="796" y2="208" stroke="#d1d5db"/>
<line x1="64" y1="34" x2="64" y2="208" stroke="#d1d5db"/>
<polyline fill="none" stroke="#2563eb" stroke-width="3" points="64.0,50.0 104.7,38.7 145.3,36.8 186.0,46.1 226.7,52.8 267.3,35.3 308.0,34.0 348.7,69.8 389.3,95.3 430.0,93.2 470.7,83.0 511.3,131.9 552.0,140.5 592.7,146.6 633.3,150.8 674.0,141.4 714.7,166.1 755.3,208.0 796.0,197.8"/>
<text x="8" y="42" font-family="Arial,sans-serif" font-size="12" fill="#4b5563">23,446.80</text>
<text x="8" y="208" font-family="Arial,sans-serif" font-size="12" fill="#4b5563">22,358.15</text>
<text x="64" y="236" font-family="Arial,sans-serif" font-size="11" fill="#6b7280">2026-09-18T09:59</text>
<text x="796" y="236" text-anchor="end" font-family="Arial,sans-serif" font-size="11" fill="#6b7280">2026-10-01T09:59</text>
</svg>