<svg xmlns="http://www.w3.org/2000/svg" width="820" height="250" viewBox="0 0 820 250">
<rect width="100%" height="100%" fill="#ffffff"/>
<text x="64" y="22" font-family="Arial,sans-serif" font-size="16" font-weight="700" fill="#111827">OB XAUUSDT 15m — recent snapshots</text>
<line x1="64" y1="208" x2="796" y2="208" stroke="#d1d5db"/>
<line x1="64" y1="34" x2="64" y2="208" stroke="#d1d5db"/>
<polyline fill="none" stroke="#2563eb" stroke-width="3" points="64.0,34.0 84.3,42.9 104.7,39.2 125.0,57.3 145.3,76.4 165.7,62.6 186.0,59.6 206.3,58.3 226.7,83.3 247.0,75.9 267.3,74.7 287.7,58.8 308.0,59.0 328.3,67.8 348.7,76.9 369.0,87.1 389.3,110.5 409.7,107.0 430.0,103.5 450.3,95.8 470.7,105.2 491.0,115.5 511.3,115.0 531.7,114.0 552.0,109.0 572.3,96.0 592.7,110.8 613.0,94.7 633.3,105.0 653.7,105.2 674.0,122.2 694.3,162.6 714.7,190.4 735.0,203.1 755.3,208.0 775.7,202.9 796.0,200.3"/>
<text x="8" y="42" font-family="Arial,sans-serif" font-size="12" fill="#4b5563">424,184.17</text>
<text x="8" y="208" font-family="Arial,sans-serif" font-size="12" fill="#4b5563">399,065.34</text>
<text x="64" y="236" font-family="Arial,sans-serif" font-size="11" fill="#6b7280">2026-09-18T20:59</text>
<text x="796" y="236" text-anchor="end" font-family="Arial,sans-serif" font-size="11" fill="#6b7280">2026-09-29T08:59</text>
</svg>