<svg xmlns="http://www.w3.org/2000/svg" width="820" height="250" viewBox="0 0 820 250">
<rect width="100%" height="100%" fill="#ffffff"/>
<text x="64" y="22" font-family="Arial,sans-serif" font-size="16" font-weight="700" fill="#111827">OB XAUUSDT 15m — recent snapshots</text>
<line x1="64" y1="208" x2="796" y2="208" stroke="#d1d5db"/>
<line x1="64" y1="34" x2="64" y2="208" stroke="#d1d5db"/>
<polyline fill="none" stroke="#2563eb" stroke-width="3" points="64.0,34.0 79.6,63.1 95.1,54.4 110.7,53.0 126.3,34.6 141.9,34.8 157.4,45.0 173.0,55.6 188.6,67.4 204.2,94.6 219.7,90.6 235.3,86.5 250.9,77.5 266.5,88.5 282.0,100.4 297.6,99.9 313.2,98.7 328.8,92.9 344.3,77.7 359.9,95.0 375.5,76.3 391.1,88.3 406.6,88.4 422.2,108.3 437.8,155.2 453.4,187.6 468.9,202.4 484.5,208.0 500.1,202.0 515.7,199.1 531.2,184.8 546.8,169.0 562.4,165.7 578.0,169.4 593.5,171.0 609.1,187.3 624.7,189.2 640.3,203.3 655.8,160.5 671.4,174.5 687.0,159.6 702.6,156.8 718.1,174.7 733.7,156.3 749.3,186.8 764.9,182.7 780.4,186.2 796.0,183.2"/>
<text x="8" y="42" font-family="Arial,sans-serif" font-size="12" fill="#4b5563">420,670.17</text>
<text x="8" y="208" font-family="Arial,sans-serif" font-size="12" fill="#4b5563">399,065.34</text>
<text x="64" y="236" font-family="Arial,sans-serif" font-size="11" fill="#6b7280">2026-09-22T01:29</text>
<text x="796" y="236" text-anchor="end" font-family="Arial,sans-serif" font-size="11" fill="#6b7280">2026-10-04T22:59</text>
</svg>