<svg xmlns="http://www.w3.org/2000/svg" width="820" height="250" viewBox="0 0 820 250">
<rect width="100%" height="100%" fill="#ffffff"/>
<text x="64" y="22" font-family="Arial,sans-serif" font-size="16" font-weight="700" fill="#111827">SMC BTCUSDT 4h — recent snapshots</text>
<line x1="64" y1="208" x2="796" y2="208" stroke="#d1d5db"/>
<line x1="64" y1="34" x2="64" y2="208" stroke="#d1d5db"/>
<polyline fill="none" stroke="#2563eb" stroke-width="3" points="64.0,208.0 79.6,202.3 95.1,95.2 110.7,45.8 126.3,71.4 141.9,67.5 157.4,54.4 173.0,61.2 188.6,44.0 204.2,73.7 219.7,124.7 235.3,108.6 250.9,122.6 266.5,134.3 282.0,105.8 297.6,106.0 313.2,112.7 328.8,103.9 344.3,122.0 359.9,124.5 375.5,117.2 391.1,117.8 406.6,122.1 422.2,110.2 437.8,94.9 453.4,108.3 468.9,99.9 484.5,139.2 500.1,137.4 515.7,133.4 531.2,118.4 546.8,146.8 562.4,130.6 578.0,139.6 593.5,124.7 609.1,134.3 624.7,125.7 640.3,111.9 655.8,87.9 671.4,62.3 687.0,34.0 702.6,99.4 718.1,87.5 733.7,88.3 749.3,82.3 764.9,83.0 780.4,83.1 796.0,68.6"/>
<text x="8" y="42" font-family="Arial,sans-serif" font-size="12" fill="#4b5563">8,322,713.32</text>
<text x="8" y="208" font-family="Arial,sans-serif" font-size="12" fill="#4b5563">7,781,901.34</text>
<text x="64" y="236" font-family="Arial,sans-serif" font-size="11" fill="#6b7280">2026-09-20T19:59</text>
<text x="796" y="236" text-anchor="end" font-family="Arial,sans-serif" font-size="11" fill="#6b7280">2026-10-04T11:59</text>
</svg>