<svg xmlns="http://www.w3.org/2000/svg" width="820" height="250" viewBox="0 0 820 250">
<rect width="100%" height="100%" fill="#ffffff"/>
<text x="64" y="22" font-family="Arial,sans-serif" font-size="16" font-weight="700" fill="#111827">SMC BTCUSDT 4h — recent snapshots</text>
<line x1="64" y1="208" x2="796" y2="208" stroke="#d1d5db"/>
<line x1="64" y1="34" x2="64" y2="208" stroke="#d1d5db"/>
<polyline fill="none" stroke="#2563eb" stroke-width="3" points="64.0,184.4 104.7,174.7 145.3,182.9 186.0,208.0 226.7,207.8 267.3,195.7 308.0,188.0 348.7,182.6 389.3,82.0 430.0,35.6 470.7,59.7 511.3,56.0 552.0,43.7 592.7,50.1 633.3,34.0 674.0,61.9 714.7,109.7 755.3,94.6 796.0,107.8"/>
<text x="8" y="42" font-family="Arial,sans-serif" font-size="12" fill="#4b5563">8,291,529.10</text>
<text x="8" y="208" font-family="Arial,sans-serif" font-size="12" fill="#4b5563">7,715,665.76</text>
<text x="64" y="236" font-family="Arial,sans-serif" font-size="11" fill="#6b7280">2026-09-19T11:59</text>
<text x="796" y="236" text-anchor="end" font-family="Arial,sans-serif" font-size="11" fill="#6b7280">2026-09-24T03:59</text>
</svg>