<svg xmlns="http://www.w3.org/2000/svg" width="820" height="250" viewBox="0 0 820 250">
<rect width="100%" height="100%" fill="#ffffff"/>
<text x="64" y="22" font-family="Arial,sans-serif" font-size="16" font-weight="700" fill="#111827">SMC BTCUSDT 4h — recent snapshots</text>
<line x1="64" y1="208" x2="796" y2="208" stroke="#d1d5db"/>
<line x1="64" y1="34" x2="64" y2="208" stroke="#d1d5db"/>
<polyline fill="none" stroke="#2563eb" stroke-width="3" points="64.0,184.4 98.9,174.7 133.7,182.9 168.6,208.0 203.4,207.8 238.3,195.7 273.1,188.0 308.0,182.6 342.9,82.0 377.7,35.6 412.6,59.7 447.4,56.0 482.3,43.7 517.1,50.1 552.0,34.0 586.9,61.9 621.7,109.7 656.6,94.6 691.4,107.8 726.3,118.8 761.1,92.0 796.0,92.2"/>
<text x="8" y="42" font-family="Arial,sans-serif" font-size="12" fill="#4b5563">8,291,529.10</text>
<text x="8" y="208" font-family="Arial,sans-serif" font-size="12" fill="#4b5563">7,715,665.76</text>
<text x="64" y="236" font-family="Arial,sans-serif" font-size="11" fill="#6b7280">2026-09-19T11:59</text>
<text x="796" y="236" text-anchor="end" font-family="Arial,sans-serif" font-size="11" fill="#6b7280">2026-09-24T19:59</text>
</svg>