<svg xmlns="http://www.w3.org/2000/svg" width="820" height="250" viewBox="0 0 820 250">
<rect width="100%" height="100%" fill="#ffffff"/>
<text x="64" y="22" font-family="Arial,sans-serif" font-size="16" font-weight="700" fill="#111827">SMC BTCUSDT 4h — recent snapshots</text>
<line x1="64" y1="208" x2="796" y2="208" stroke="#d1d5db"/>
<line x1="64" y1="34" x2="64" y2="208" stroke="#d1d5db"/>
<polyline fill="none" stroke="#2563eb" stroke-width="3" points="64.0,184.4 86.2,174.7 108.4,182.9 130.5,208.0 152.7,207.8 174.9,195.7 197.1,188.0 219.3,182.6 241.5,82.0 263.6,35.6 285.8,59.7 308.0,56.0 330.2,43.7 352.4,50.1 374.5,34.0 396.7,61.9 418.9,109.7 441.1,94.6 463.3,107.8 485.5,118.8 507.6,92.0 529.8,92.2 552.0,98.5 574.2,90.2 596.4,107.2 618.5,109.5 640.7,102.7 662.9,103.3 685.1,107.3 707.3,96.1 729.5,81.8 751.6,94.4 773.8,86.5 796.0,123.4"/>
<text x="8" y="42" font-family="Arial,sans-serif" font-size="12" fill="#4b5563">8,291,529.10</text>
<text x="8" y="208" font-family="Arial,sans-serif" font-size="12" fill="#4b5563">7,715,665.76</text>
<text x="64" y="236" font-family="Arial,sans-serif" font-size="11" fill="#6b7280">2026-09-19T11:59</text>
<text x="796" y="236" text-anchor="end" font-family="Arial,sans-serif" font-size="11" fill="#6b7280">2026-09-28T03:59</text>
</svg>